PathFileType	4	(X/Y/Z)	C:\Users\WrightLab\Desktop\Jo\P3_19.trc
DataRate	CameraRate	NumFrames	NumMarkers	Units	OrigDataRate	OrigDataStartFrame	OrigNumFrames
100.00	100.00	       27	19	mm	100.00	549	       731
Frame#	Time	Headset_Front			Headset_Back			Headset_Left			Headset_Right			Left_Shoulder			Right_Shoulder			Sternum			C7			Left Elbow			Right Elbow			Left Wrist			Right Wrist			Left ASIS			Right ASIS			S2			Left Knee			Right Knee			Left Ankle			Right Ankle			
		X1	Y1	Z1	X2	Y2	Z2	X3	Y3	Z3	X4	Y4	Z4	X5	Y5	Z5	X6	Y6	Z6	X7	Y7	Z7	X8	Y8	Z8	X9	Y9	Z9	X10	Y10	Z10	X11	Y11	Z11	X12	Y12	Z12	X13	Y13	Z13	X14	Y14	Z14	X15	Y15	Z15	X16	Y16	Z16	X17	Y17	Z17	X18	Y18	Z18	X19	Y19	Z19	

549	5.480	-185.12709	1582.63916	2286.60034				19.48270	1624.19971	2267.49976				127.79204	1384.02783	2300.64160	-32.02243	1326.56213	1889.96606	-86.47202	1274.58997	2270.22778				146.09830	1049.66370	2366.21973				67.56341	876.35199	2441.94287	-291.74637	890.22595	2141.97192	6.67814	904.33228	2343.73779	-189.68416	909.23126	2183.97046				45.85007	484.73608	2382.21484	-138.08347	488.10803	2237.31201	193.62437	285.59665	2159.37573	-71.55449	155.02470	2227.78369	
550	5.490	-189.80801	1583.87195	2290.23901				15.14180	1625.41479	2274.79761				123.00078	1384.22192	2308.68604	-34.02668	1328.54553	1897.59534	-90.61649	1275.45642	2274.86523				138.99005	1050.33777	2375.23975				59.07889	877.87598	2451.91699	-295.37720	894.08807	2147.67139	1.03387	904.97101	2348.67798	-192.43835	910.03424	2185.54712				33.16498	487.83908	2395.41455	-139.34068	487.88144	2239.41113	185.80621	282.56854	2177.85913	-71.53645	155.07036	2227.79346	
551	5.500	-194.30505	1584.31836	2293.32983				10.88876	1626.26257	2282.16455				117.66125	1384.89502	2318.20532	-35.32688	1330.16675	1906.76184	-95.05804	1276.91589	2279.92993				131.30362	1050.89331	2385.21143				50.16753	879.12842	2460.81763	-298.22614	897.06250	2151.64258	-4.98929	906.64398	2354.49902	-194.73892	910.41638	2187.45117				20.21908	490.09955	2407.11523	-140.74701	487.90576	2240.95728	176.70157	279.33011	2198.06396	-71.64066	155.18967	2228.02173	
552	5.510	-198.58965	1585.07568	2297.09058				6.82229	1627.01514	2289.68604				112.97278	1385.67163	2327.78833	-36.88431	1331.89526	1915.13806	-99.69800	1277.53784	2284.16992				123.97977	1051.44507	2394.41968				41.91419	880.52942	2470.11060	-301.29037	900.08057	2156.45093	-11.21845	907.72961	2360.60010	-197.99892	910.72803	2189.53662				7.55574	492.87497	2418.01416	-142.34274	488.14520	2243.06299	169.07118	275.20953	2220.28687	-71.65739	155.34036	2228.19580	
553	5.520	-202.92439	1585.60999	2299.67969				2.54656	1627.49207	2296.92603				108.07043	1386.01270	2336.49243	-38.15236	1333.85730	1923.00525	-103.61029	1278.15674	2287.71216				116.54357	1052.35254	2404.36523				32.63036	881.88580	2478.89795	-304.08640	903.04474	2160.37207	-17.61362	909.76868	2367.04053	-200.82332	910.58258	2191.94434				-5.59165	496.61005	2429.08423	-141.60873	488.18365	2242.26123	160.16663	270.58704	2241.84790	-71.80365	155.61188	2228.56836	
554	5.530	-207.37419	1586.63770	2303.70093				-1.26770	1627.97705	2303.64600				102.46402	1386.71082	2345.89966				-108.04651	1279.24805	2292.35400				109.35394	1053.08142	2414.11084				23.66143	883.36017	2488.04712	-306.39648	906.08472	2163.49463	-23.37009	910.67023	2372.35693	-203.37744	911.46710	2194.88696				-17.50547	499.20740	2437.90747	-141.96886	488.17383	2243.04175	150.98596	265.33224	2263.68115	-71.78574	155.74129	2228.72656	
555	5.540	-211.34154	1586.98462	2305.80737				-5.52675	1628.69824	2310.94897				96.73342	1386.97083	2354.63550				-112.48674	1279.60522	2295.53101				101.70553	1053.89001	2424.27148				14.03035	884.41217	2496.78857	-308.92764	909.15424	2167.57568	-29.84441	912.69196	2378.71606	-205.03485	911.45264	2196.72461				-30.42958	502.85907	2448.01318	-142.43120	488.05841	2244.67407	141.62135	260.66779	2285.96387	-72.80142	157.57898	2228.56836	
556	5.550	-215.39542	1588.46936	2309.27197				-10.06634	1629.53430	2318.67334				90.78085	1387.47559	2363.37549				-116.65079	1280.00647	2299.16357				94.23687	1054.53796	2433.72290				4.84921	885.46295	2504.78491	-310.89795	911.96899	2170.81104	-36.02482	913.73969	2384.69385	-207.51640	912.42792	2200.30469				-42.74815	505.48590	2456.04053	-143.07484	487.82513	2246.32227	130.25703	256.01648	2308.89844	-72.89655	157.67033	2228.91895	
557	5.560	-220.12726	1589.61389	2312.02979				-14.37586	1630.03052	2325.48071				84.84921	1387.47888	2372.23975				-121.18386	1280.90173	2303.31714				86.20892	1054.58301	2442.71753				-4.97123	886.55542	2513.29077	-312.47116	914.51050	2173.69312	-41.83883	914.83136	2390.03564							-54.94165	507.65833	2462.99829	-143.98477	487.60834	2248.02344	120.03692	250.73145	2331.36523	-73.08936	157.93381	2229.34106	
558	5.570							-18.60344	1630.75293	2332.36401				78.49973	1388.32507	2381.34692				-125.29519	1280.86877	2306.30298				78.26606	1055.15259	2452.36572				-15.61728	888.33118	2522.14697	-314.25745	917.07074	2177.16577	-48.17770	916.22302	2395.20410							-66.88699	509.94711	2469.50439	-144.74280	487.61011	2249.42725	108.27646	245.01149	2353.13647	-72.96547	158.15498	2229.48169	
559	5.580							-22.90257	1631.23999	2339.17383				72.46249	1388.34460	2389.97388				-129.58490	1281.36816	2309.98999				70.13281	1055.98938	2462.09888				-25.74825	888.92651	2529.78027	-315.62039	918.97778	2180.12598	-54.73537	917.88904	2401.69409							-77.68869	512.12860	2475.77515	-145.49603	487.78284	2250.65845	95.90639	240.14432	2375.51563	-73.17393	158.43633	2229.72754	
560	5.590							-27.22603	1631.47095	2345.87329				66.33041	1388.29688	2398.35742				-133.85930	1281.50452	2313.21948				61.92126	1056.04370	2470.95728				-36.03697	889.89972	2536.99121	-316.64688	920.72186	2182.68774	-61.99488	919.57355	2408.23242							-88.63602	514.01691	2481.58838	-146.25629	487.94437	2252.20459	82.78382	235.78825	2397.77588	-73.03321	158.61259	2229.80127	
561	5.600							-31.55219	1631.76660	2352.63989				59.28436	1388.78992	2407.80469				-137.88152	1281.49841	2316.40625				53.53888	1056.52808	2479.95361				-46.64141	890.88434	2544.11182	-317.52795	922.43188	2185.51392	-68.96510	921.52948	2414.95508							-99.26649	515.00769	2485.06812	-146.83896	487.84503	2254.11572	68.94637	230.26370	2419.29395	-72.77975	158.71304	2231.39404	
562	5.610							-36.19745	1632.20593	2359.57544				52.45340	1389.27014	2415.80566				-142.47261	1281.75476	2320.16064				44.92506	1057.19470	2489.50781				-57.60794	892.15271	2551.15381	-318.25378	923.64600	2187.77588	-76.48434	923.92334	2420.65820							-109.42735	516.33698	2490.54541	-147.52098	487.68631	2256.30933	53.98380	225.49745	2441.66797	-72.71857	158.88049	2231.41064	
563	5.620							-40.70879	1632.32434	2366.31299				45.77824	1389.38892	2423.95679				-146.56689	1281.58569	2323.32300				35.87209	1057.41785	2498.21460				-68.54154	893.01123	2557.63599	-318.47009	924.12744	2189.35840										-118.75761	517.80151	2494.54883	-148.69260	487.68729	2258.05518	37.66271	222.25755	2463.92773	-72.67012	159.03503	2231.42749	
564	5.630							-45.62910	1632.51953	2373.53735				38.81636	1389.56958	2432.38184				-151.05853	1281.72290	2326.79395				27.33172	1057.82056	2506.87842				-79.91190	894.20441	2564.28101	-319.32101	925.14160	2191.91797										-128.32687	518.25861	2497.05249	-149.77014	487.57956	2259.71387	20.74886	218.44432	2484.22583	-72.65298	159.19434	2231.48926	
565	5.640							-50.21942	1632.41321	2379.87085				32.03891	1389.88794	2441.05811				-154.80446	1281.47998	2329.46655				17.98930	1058.28577	2515.45752				-91.28187	895.27649	2570.43140	-319.14651	924.67834	2193.03735										-138.20003	518.96399	2500.64355	-151.09811	487.62143	2262.26904	2.73938	215.61502	2504.54907	-72.76089	159.22130	2231.63989	
566	5.650							-54.81243	1632.52368	2386.10010				25.16981	1389.79492	2448.33398				-159.03056	1281.36304	2333.14673				8.87333	1058.58569	2523.72192				-102.72581	896.19720	2576.58862	-319.19778	924.31610	2194.12964										-147.06621	520.31616	2504.03345	-151.95560	487.32751	2264.44019	-15.42459	212.64149	2523.84058	-72.82944	159.30962	2231.77490	
567	5.660							-59.76866	1631.68738	2392.47168				17.86488	1389.65918	2456.33789				-163.05655	1281.15540	2336.40820				0.01072	1058.81702	2531.77979				-114.06778	896.98077	2582.11743	-318.96460	923.58630	2195.18188										-156.90654	520.72992	2505.82397	-153.11180	487.15732	2265.85083	-33.71912	210.82216	2542.42676	-72.95487	159.50447	2231.96289	
568	5.670							-64.64104	1631.65540	2398.41553				10.49540	1389.87378	2464.77344				-166.87622	1281.09106	2339.41626				-9.43609	1058.94556	2539.84741				-125.21041	897.46814	2586.66846	-318.53482	922.85980	2196.84326										-164.67938	519.99805	2507.08765	-154.23509	487.17371	2267.51123	-53.15161	209.13220	2558.38574	-72.32310	158.91377	2233.08594	
569	5.680							-69.69241	1631.37524	2404.27271				3.01660	1389.83911	2472.63159				-170.29807	1280.17639	2341.75952				-18.83271	1058.70056	2547.60571				-136.55545	898.06213	2591.65552	-317.96185	922.56683	2198.23315										-173.18599	521.15454	2510.40161	-155.21489	487.07825	2269.11548	-71.89632	208.70782	2574.27368	-73.14038	159.62714	2232.17480	
570	5.690							-75.35955	1631.49951	2411.21973				-4.40997	1389.39490	2480.53125				-174.26921	1279.98291	2345.34521				-27.77753	1058.51172	2554.71851				-147.92580	898.65198	2596.50708	-316.84238	920.51093	2198.65479										-180.98215	520.10321	2511.67749	-156.47290	486.96869	2271.06055	-90.97559	207.83365	2587.19360	-72.76261	159.70813	2233.95215	
571	5.700							-80.71580	1631.26050	2416.97754				-11.94482	1388.98303	2488.20386				-177.94786	1279.60815	2348.37744				-37.00186	1058.13831	2562.34277				-159.01785	898.84601	2600.58179	-315.78506	918.11053	2198.03467										-189.09721	519.57111	2514.02466	-157.22676	486.75192	2272.44604	-109.63261	206.39600	2598.75903	-73.13450	159.63914	2234.35718	
572	5.710							-86.00718	1629.97888	2422.13037				-19.55738	1388.82495	2495.59863				-181.58896	1278.93005	2351.44360				-46.45292	1058.13159	2569.91333				-169.57756	898.51123	2604.29224	-314.55991	916.29480	2198.80347										-196.47354	519.39923	2516.69800	-158.51012	486.58365	2273.60645	-126.92731	205.75336	2608.13452	-73.04534	159.75807	2234.29614	
573	5.720							-91.71609	1629.87805	2428.59814				-27.61138	1388.23376	2503.38354				-185.24690	1278.39355	2354.33203				-55.56991	1057.67163	2576.39355				-180.82993	898.51648	2608.17725	-312.53970	914.27997	2198.74316										-203.39600	519.09845	2519.98462	-160.05727	486.24857	2274.70313	-143.05186	205.02641	2615.53516	-73.16831	159.83788	2234.45288	
574	5.730							-97.45668	1628.99170	2433.53003				-35.64563	1387.72791	2510.89575				-188.60159	1277.09534	2357.08984				-65.15996	1056.93799	2583.73828				-191.51811	898.56116	2611.70923	-310.97598	911.66064	2198.51782										-209.60446	518.55060	2523.76904	-161.65146	485.97882	2276.73218	-157.14845	204.39978	2621.55176	-74.33891	161.22476	2233.06299	
575	5.740							-103.57001	1628.98511	2439.91968				-43.96279	1387.09680	2518.35156				-192.36002	1276.28186	2360.13257				-74.59300	1056.22241	2590.36255				-201.78687	897.84174	2614.66455	-309.22263	909.30713	2198.25537										-215.01140	517.28571	2526.18213	-163.07739	485.57327	2278.47778	-169.78902	203.65477	2626.84668	-74.32529	161.51477	2233.31470	
